<?xml version="1.0" encoding="UTF-8" standalone="no"?>
<!-- Created with Inkscape (http://www.inkscape.org/) -->

<svg
   sodipodi:docname="logo.svg"
   inkscape:version="1.1 (ce6663b3b7, 2021-05-25)"
   id="svg5"
   version="1.1"
   viewBox="0 0 139.55159 79.884338"
   height="79.884338mm"
   width="139.55159mm"
   xmlns:inkscape="http://www.inkscape.org/namespaces/inkscape"
   xmlns:sodipodi="http://sodipodi.sourceforge.net/DTD/sodipodi-0.dtd"
   xmlns="http://www.w3.org/2000/svg"
   xmlns:svg="http://www.w3.org/2000/svg">
  <sodipodi:namedview
     id="namedview7"
     pagecolor="#ffffff"
     bordercolor="#666666"
     borderopacity="1.0"
     inkscape:pageshadow="2"
     inkscape:pageopacity="0.0"
     inkscape:pagecheckerboard="true"
     inkscape:document-units="mm"
     showgrid="false"
     inkscape:zoom="1"
     inkscape:cx="126.5"
     inkscape:cy="50"
     inkscape:window-width="1920"
     inkscape:window-height="1021"
     inkscape:window-x="1440"
     inkscape:window-y="768"
     inkscape:window-maximized="1"
     inkscape:current-layer="layer1"
     fit-margin-top="0"
     fit-margin-left="0"
     fit-margin-right="0"
     fit-margin-bottom="0" />
  <defs
     id="defs2" />
  <g
     inkscape:label="Layer 1"
     inkscape:groupmode="layer"
     id="layer1"
     style="display:inline">
    <g
       id="g9006"
       transform="translate(-49.586156,-32.22703)">
      <path
         style="fill:#000000;fill-opacity:1;stroke-width:0.217029"
         d="M 49.586156,72.178007 V 32.244641 h 9.983106 9.983105 l 9.956646,19.91235 9.956644,19.912348 9.956014,-19.917841 9.956019,-19.91784 27.23715,0.07269 c 30.05711,0.08022 27.72718,-0.02593 32.18053,1.46608 4.49745,1.506783 7.99864,3.703997 11.56389,7.257057 4.62835,4.61251 7.35281,9.884727 8.46994,16.390538 0.43975,2.560962 0.31382,8.361261 -0.2356,10.851458 -1.56014,7.071208 -5.63309,13.446211 -11.37329,17.801572 l -0.72192,0.547756 6.31875,12.63603 c 3.47532,6.949821 6.31876,12.685201 6.31876,12.745281 0,0.0601 -4.46894,0.10925 -9.93097,0.10925 h -9.93097 l -4.9879,-9.98334 -4.9879,-9.983341 h -18.72065 c -10.29636,0 -18.7177,-0.07325 -18.71409,-0.162772 0.004,-0.08952 2.27428,-4.606444 5.04593,-10.037598 l 5.03937,-9.874827 14.86649,-0.108515 14.8665,-0.108515 1.24837,-0.504078 c 2.21927,-0.896116 4.15109,-2.710108 5.22771,-4.908846 2.74351,-5.602977 -0.36884,-12.298934 -6.47608,-13.932762 -0.86961,-0.23264 -5.18043,-0.290813 -21.70328,-0.292877 l -20.61814,-0.0026 -14.94734,29.895635 -14.947345,29.895646 -9.944432,-19.858047 -9.944432,-19.858036 -0.01195,19.912425 -0.01195,19.912428 h -9.98334 -9.983341 z"
         id="path9020" />
      <path
         style="fill:#000000;fill-opacity:1;stroke-width:0.217029"
         d="M 49.586156,72.069493 V 32.244641 h 9.983106 9.983105 l 9.956646,19.91235 9.956644,19.912348 9.955461,-19.912348 9.955462,-19.91235 26.15256,0.0013 c 21.68355,0.0011 26.50489,0.05479 28.21435,0.314405 7.64137,1.160508 14.78193,5.421945 19.44518,11.604745 1.71945,2.27976 4.00898,6.828286 4.76021,9.456943 2.55058,8.924881 0.95168,18.405327 -4.35878,25.844777 -1.33194,1.865925 -4.41736,5.079422 -6.2507,6.510174 l -0.83652,0.652828 6.31688,12.632275 6.31687,12.632282 h -9.98402 -9.98402 l -4.93599,-9.87483 -4.93599,-9.87483 h -18.71987 c -10.29594,-10e-7 -18.71988,-0.03585 -18.71988,-0.07967 0,-0.04382 2.25354,-4.536322 5.00787,-9.983341 l 5.00786,-9.903677 13.49387,-0.0067 c 7.42163,-0.0037 14.22634,-0.100309 15.12159,-0.21472 3.96107,-0.506223 7.35499,-3.458052 8.34434,-7.257425 0.38406,-1.474919 0.42793,-3.473977 0.1068,-4.866931 -0.79659,-3.45531 -3.93557,-6.594288 -7.39088,-7.390878 -0.60485,-0.139441 -8.46673,-0.22135 -21.56988,-0.224721 l -20.61814,-0.0053 -14.94734,29.895635 -14.947345,29.895638 -9.944432,-19.858039 -9.944432,-19.858036 -0.01195,19.803911 -0.01195,19.803904 h -9.98334 -9.983341 z"
         id="path9018" />
      <path
         style="fill:#000000;fill-opacity:1;stroke-width:0.217029"
         d="M 49.586156,72.069493 V 32.244641 h 9.983106 9.983105 l 9.956646,19.91235 9.956644,19.912348 9.956014,-19.91788 9.956019,-19.917879 27.02012,0.06827 c 26.55227,0.06709 27.05396,0.07616 28.9734,0.523661 2.55456,0.595573 4.35933,1.214254 6.6145,2.267477 8.60657,4.019486 14.73021,11.895217 16.65425,21.419367 0.53524,2.649492 0.52841,8.766431 -0.0127,11.325064 -1.5251,7.212103 -5.24861,13.220811 -11.17695,18.036458 l -0.94259,0.765679 6.31443,12.627393 6.31444,12.627391 h -9.98324 -9.98325 l -4.99259,-9.98334 -4.9926,-9.983344 h -18.55553 c -10.20554,0 -18.55553,-0.04926 -18.55553,-0.109459 0,-0.0602 2.19763,-4.503873 4.88363,-9.874827 l 4.88363,-9.765368 13.72662,-0.0017 c 8.41335,-0.0011 14.27267,-0.08872 15.13731,-0.226602 2.79763,-0.446139 5.74546,-2.403433 7.09949,-4.713902 2.80656,-4.789039 1.16568,-10.999481 -3.64072,-13.779412 -2.22438,-1.286444 -1.42407,-1.245031 -24.06204,-1.245031 H 119.36029 L 104.41295,82.106959 89.465605,112.0026 79.521173,92.144558 69.576741,72.286522 l -0.01195,19.803911 -0.01195,19.803907 h -9.98334 -9.983341 z"
         id="path9016" />
      <path
         style="fill:#000000;fill-opacity:1;stroke-width:0.217029"
         d="M 49.586156,72.069493 V 32.244641 h 9.983106 9.983105 l 9.956646,19.91235 9.956644,19.912348 9.956014,-19.918512 9.956019,-19.918511 27.02012,0.07121 c 30.02734,0.07913 27.63911,-0.0364 32.48062,1.571178 4.352,1.445038 8.11184,3.78831 11.47547,7.151941 4.26752,4.267518 6.97137,9.33986 8.27586,15.525267 0.5364,2.543411 0.536,8.449942 -6.5e-4,11.142119 -0.86394,4.333205 -2.89226,8.913436 -5.45508,12.318363 -1.33841,1.778185 -3.82055,4.310553 -5.72872,5.844621 l -0.94774,0.761944 6.31958,12.637695 6.31959,12.637696 h -9.98325 -9.98324 l -4.9927,-9.98334 -4.9926,-9.983344 h -18.55553 c -10.20554,0 -18.55553,-0.05641 -18.55553,-0.12535 0,-0.06894 2.20332,-4.508177 4.89626,-9.864967 l 4.89625,-9.73962 14.69063,-0.06865 c 14.46155,-0.06759 14.71002,-0.076 15.93487,-0.539478 3.23412,-1.223795 5.75055,-4.048442 6.46359,-7.25528 0.36753,-1.652927 0.17518,-4.320402 -0.42429,-5.883852 -0.90235,-2.353382 -3.19256,-4.653993 -5.60112,-5.626542 l -1.24837,-0.504078 -21.16034,-0.05782 -21.16034,-0.05782 -14.94771,29.899201 -14.947715,29.8992 -9.944432,-19.85804 -9.944432,-19.858036 -0.01195,19.803911 -0.01195,19.803905 h -9.98334 -9.983341 z"
         id="path9014" />
      <path
         style="fill:#000000;fill-opacity:1;stroke-width:0.217029"
         d="M 49.586156,72.069493 V 32.244641 h 9.930038 9.930037 l 9.873873,19.766305 c 5.430629,10.871468 9.944972,19.81208 10.031871,19.868028 0.0869,0.05595 4.628235,-8.841673 10.091855,-19.77249 l 9.93386,-19.874212 26.91161,0.06978 c 26.58039,0.06892 26.93641,0.07548 28.92604,0.533233 9.29985,2.139593 16.52778,7.668773 20.67615,15.816721 2.21795,4.356348 3.12118,8.276479 3.12034,13.542659 -6.5e-4,3.980751 -0.40591,6.421775 -1.65322,9.957406 -1.78964,5.072929 -5.30097,9.949785 -9.80311,13.615446 l -1.05448,0.858563 6.31781,12.634132 6.3178,12.634128 -9.92945,-1.4e-4 -9.92945,-1.5e-4 -4.99167,-9.92894 -4.99167,-9.928935 -18.61025,-0.05547 c -10.23564,-0.03051 -18.61025,-0.119335 -18.61025,-0.197392 0,-0.07806 2.22156,-4.521184 4.9368,-9.873616 l 4.9368,-9.731692 h 13.90488 c 9.04977,0 14.35452,-0.08213 15.19265,-0.235214 3.11462,-0.56889 5.71633,-2.577367 7.18315,-5.545264 0.82672,-1.672755 0.83253,-1.702857 0.83253,-4.311378 0,-2.59314 -0.0103,-2.647782 -0.8054,-4.256476 -1.01677,-2.057297 -2.82101,-3.835165 -4.88345,-4.812074 l -1.47311,-0.697762 -21.32089,-0.0584 -21.32088,-0.0584 -14.86888,29.737136 C 96.2102,98.295605 89.470551,111.67731 89.411085,111.67731 c -0.05947,0 -4.54652,-8.86292 -9.971233,-19.695392 l -9.863113,-19.695396 -0.01195,19.803911 -0.01195,19.803907 h -9.98334 -9.983341 z"
         id="path9012" />
      <path
         style="fill:#000000;fill-opacity:1;stroke-width:0.217029"
         d="M 49.586156,72.069493 V 32.244641 h 9.929637 9.929635 l 9.928373,19.858169 c 5.460608,10.921992 10.001943,19.858168 10.091856,19.858168 0.08992,0 4.633062,-8.9398 10.095883,-19.866224 l 9.9324,-19.866224 26.74497,0.06984 c 29.01083,0.07576 27.17015,0.003 31.59949,1.248561 6.78025,1.90661 13.33122,7.019341 17.04709,13.30447 2.87502,4.862891 4.11153,9.440416 4.11533,15.234749 0.002,3.745915 -0.30546,5.882599 -1.30962,9.087879 -1.66095,5.301717 -5.54283,10.959402 -9.69786,14.134242 -0.7811,0.59683 -1.42579,1.207561 -1.43265,1.357181 -0.007,0.149617 2.77092,5.838158 6.17285,12.6412 3.40193,6.803038 6.18533,12.418338 6.18533,12.478428 0,0.0601 -4.42011,0.10926 -9.82246,0.10926 h -9.82245 l -4.9879,-9.98334 -4.9879,-9.98334 h -18.61213 c -10.23668,0 -18.61214,-0.0555 -18.61214,-0.123329 0,-0.06783 2.22184,-4.505975 4.93741,-9.862539 l 4.93742,-9.739207 14.75798,-0.06655 14.75798,-0.06655 1.26403,-0.509936 c 4.4143,-1.780825 7.12608,-6.366564 6.43273,-10.878032 -0.66101,-4.301094 -4.20914,-7.808674 -8.56488,-8.466987 -1.00682,-0.152167 -8.21668,-0.209728 -21.37737,-0.170667 L 119.36103,52.10281 104.41292,81.943401 89.464819,111.784 79.52078,91.926743 l -9.944039,-19.85725 -0.01195,19.912425 -0.01195,19.912422 h -9.98334 -9.983341 z"
         id="path9010" />
      <path
         style="fill:#000000;fill-opacity:1;stroke-width:0.217029"
         d="M 49.586156,72.069493 V 32.244641 h 9.929633 9.92963 l 10.009727,20.020862 10.009725,20.02086 10.015301,-20.029667 10.015298,-20.029666 26.74421,0.07432 c 26.67268,0.07412 26.74983,0.0756 28.84917,0.553575 6.14752,1.399666 10.82727,3.923271 15.10148,8.143634 4.32592,4.271416 7.04116,9.29782 8.32117,15.403946 0.55697,2.656941 0.66561,7.805986 0.21837,10.349776 -1.31222,7.463637 -5.0639,13.980617 -10.61335,18.436263 l -1.74303,1.399473 6.27269,12.543915 c 3.44998,6.899148 6.27269,12.593078 6.27269,12.653158 0,0.0601 -4.42011,0.10925 -9.82246,0.10925 h -9.82245 l -4.9879,-9.98334 -4.9879,-9.983336 h -18.63022 c -10.24662,0 -18.59767,-0.0781 -18.55788,-0.173558 0.0398,-0.09546 2.26977,-4.537822 4.9555,-9.871925 l 4.88316,-9.698367 14.22407,-0.0029 c 15.34463,-0.0031 15.44923,-0.01005 17.73712,-1.172148 3.8417,-1.951353 6.05061,-6.521681 5.17702,-10.71147 -0.77397,-3.71198 -3.04473,-6.361463 -6.62258,-7.727122 -1.20846,-0.46126 -1.35848,-0.464824 -22.16001,-0.526198 L 119.36103,51.98217 104.41312,81.884001 89.46521,111.78583 79.563834,91.981918 c -5.445756,-10.892151 -9.97487,-19.803911 -10.0647,-19.803911 -0.08983,0 -0.163326,8.936176 -0.163326,19.858169 v 19.858164 h -9.874826 -9.874826 z"
         id="path9008" />
    </g>
    <path
       style="fill:#000000;stroke-width:1.20264"
       d="M 0.60131916,150.32979 V 0.60131916 H 37.586873 74.572427 L 112.59986,76.667552 150.6273,152.73378 188.72871,76.538539 226.83011,0.34329291 329.88996,0.88971579 432.94979,1.4361387 443.77354,4.6813723 c 41.72129,12.5091037 71.9333,44.9351347 80.47066,86.3677797 7.90331,38.355598 -6.69267,81.101328 -36.25269,106.169428 -4.68901,3.97646 -8.57377,7.55528 -8.63281,7.95292 -0.0591,0.39764 10.17523,21.64898 22.7428,47.22522 12.56757,25.57622 22.85012,46.771 22.85012,47.09951 0,0.32851 -16.35058,0.45407 -36.33463,0.279 l -36.33464,-0.31829 -18.68607,-36.96048 -18.68606,-36.96048 -53.62792,-0.0207 c -29.49535,-0.0108 -60.95,-0.37181 -69.89921,-0.80101 l -16.2713,-0.78032 18.18577,-35.88189 18.18576,-35.88189 29.46464,-0.12873 c 16.20555,-0.0708 41.91195,-0.50783 57.12532,-0.97116 26.71412,-0.81358 27.86906,-0.95065 33.75019,-4.00529 7.26521,-3.77354 14.27236,-11.19714 17.78012,-18.83683 3.59021,-7.81926 3.57647,-22.57009 -0.0284,-30.424425 -3.67692,-8.011449 -11.5761,-16.0502 -19.46025,-19.804076 L 423.32869,74.76851 343.35324,74.232044 263.37779,73.69558 207.01452,186.55718 150.65127,299.41876 113.32565,224.8865 C 84.341791,167.01114 75.791229,150.88904 75.065679,152.74728 c -0.513901,1.31618 -0.972405,34.99959 -1.018895,74.85202 l -0.08453,72.45896 H 37.281788 0.60131916 Z"
       id="path9194"
       transform="scale(0.26458333)" />
    <path
       style="fill:#000000;stroke-width:0.0751649"
       d="m 0.03758245,301.52398 v -0.37583 H 37.732777 75.427972 v 0.37583 0.37582 H 37.732777 0.03758245 Z"
       id="path9798"
       transform="scale(0.26458333)" />
    <path
       style="fill:#000000;stroke-width:0.0751649"
       d="m 0.03758245,265.14417 v -35.92882 h 0.26307713 0.26307713 v 35.44024 35.44025 H 37.269297 73.974857 l 0.05007,-25.71889 c 0.02754,-14.1454 0.05007,-30.09351 0.05007,-35.44025 v -9.72135 h 0.263077 0.263077 v 35.92882 35.92882 H 37.31937 0.03758245 Z"
       id="path9837"
       transform="scale(0.26458333)" />
    <path
       style="fill:#000000;stroke-width:0.00390625"
       d="m 260.85742,78.749575 c 0,-0.0021 2.51896,-5.048647 2.52137,-5.051411 5.1e-4,-5.8e-4 0.6485,0.0034 1.43997,0.0088 0.79148,0.0054 1.63285,0.01099 1.86972,0.01244 l 0.43066,0.0026 v 0.476051 0.476052 l -0.60059,-0.0024 c -0.74068,-0.0029 -2.8035,-0.009 -2.80426,-0.0082 -3e-4,3.04e-4 -0.46041,0.920328 -1.02246,2.044498 l -1.02191,2.043945 h -0.40625 c -0.22344,0 -0.40625,-0.0011 -0.40625,-0.0024 z"
       id="path10172"
       transform="scale(0.26458333)" />
    <path
       style="fill:#000000;stroke-width:0.00390625"
       d="m 265.74219,75.505315 c -0.65742,-0.0017 -1.42417,-0.0043 -1.70387,-0.0057 l -0.50856,-0.0025 0.0932,-0.186438 0.0932,-0.186437 0.53642,-0.0025 c 0.29502,-0.0014 0.99608,-0.0034 1.5579,-0.0045 0.56181,-0.0011 1.08608,-0.003 1.16504,-0.0042 l 0.14355,-0.0022 v 0.199531 0.199531 l -0.0908,-6.61e-4 c -0.05,-3.63e-4 -0.62871,-0.0021 -1.28613,-0.0038 z"
       id="path10211"
       transform="scale(0.26458333)" />
    <path
       style="fill:#000000;stroke-width:0.00390625"
       d="m 262.71359,77.127022 0.81375,-1.624931 0.0928,-6.9e-5 c 0.051,-3.8e-5 0.0928,8.09e-4 0.0928,0.0019 0,0.0011 -0.36518,0.732324 -0.81152,1.625 l -0.81152,1.623048 h -0.095 -0.095 z"
       id="path10250"
       transform="scale(0.26458333)" />
    <path
       style="fill:#000000;stroke-width:0.00390625"
       d="m 262.0957,78.749998 c 0,-0.0011 0.36489,-0.731722 0.81086,-1.62366 l 0.81085,-1.621706 0.63739,0.0026 c 0.35056,0.0014 1.11595,0.0037 1.70086,0.0051 1.02954,0.0025 1.06348,0.0028 1.06348,0.0098 0,0.007 -0.0513,0.0072 -1.70312,0.0072 h -1.70313 l -0.80566,1.611328 c -0.44312,0.88623 -0.80698,1.611328 -0.80859,1.611328 -0.002,0 -0.003,-8.8e-4 -0.003,-0.002 z"
       id="path10289"
       transform="scale(0.26458333)" />
  </g>
  <g
     inkscape:groupmode="layer"
     id="layer2"
     inkscape:label="Layer 2"
     style="display:inline" />
</svg>
